<svg xmlns="http://www.w3.org/2000/svg" width="35.789" height="31.455" viewBox="0 0 35.789 31.455">
  <g id="Group_321" data-name="Group 321" transform="translate(0 -31)">
    <path id="Path_1" data-name="Path 1" d="M11.531,51.97H30.546a1.049,1.049,0,0,0,1.008-.76l4.194-14.679a1.048,1.048,0,0,0-1.008-1.337H9.113l-.749-3.373A1.049,1.049,0,0,0,7.339,31H1.048a1.048,1.048,0,1,0,0,2.1H6.5l3.786,17.035a3.145,3.145,0,0,0,1.249,6.032H30.546a1.049,1.049,0,0,0,0-2.1H11.533a1.048,1.048,0,0,1,0-2.1Zm18.225-2.1Z" fill="#fff"/>
    <path id="Path_2" data-name="Path 2" d="M150,394.146A3.146,3.146,0,1,0,153.146,391,3.149,3.149,0,0,0,150,394.146Zm3.146-1.049a1.049,1.049,0,1,1-1.049,1.049A1.05,1.05,0,0,1,153.146,393.1Z" transform="translate(-139.515 -334.836)" fill="#fff"/>
    <path id="Path_3" data-name="Path 3" d="M362,394.146A3.146,3.146,0,1,0,365.146,391,3.149,3.149,0,0,0,362,394.146Zm3.146-1.049a1.049,1.049,0,1,1-1.049,1.049A1.05,1.05,0,0,1,365.146,393.1Z" transform="translate(-336.696 -334.836)" fill="#fff"/>
  </g>
</svg>
